<svg xmlns="http://www.w3.org/2000/svg" xmlns:xlink="http://www.w3.org/1999/xlink" width="22.98" height="23.283" viewBox="0 0 22.98 23.283"><defs><style>.a{fill:#2890cb;}.b{clip-path:url(#a);}</style><clipPath id="a"><path class="a" d="M10.2,30.692a1.262,1.262,0,1,0,1.262-1.284A1.27,1.27,0,0,0,10.2,30.692m12.036,0A1.262,1.262,0,1,0,23.5,29.408a1.27,1.27,0,0,0-1.262,1.284M14.493,29.54a2.977,2.977,0,1,0,2.972-3.005,3,3,0,0,0-2.972,3.005M6.4,26.856A1.262,1.262,0,1,0,7.661,25.58,1.27,1.27,0,0,0,6.4,26.856m19.642,0A1.262,1.262,0,1,0,27.3,25.58a1.27,1.27,0,0,0-1.262,1.276M10.479,26.3a1.678,1.678,0,1,0,1.678-1.7,1.692,1.692,0,0,0-1.678,1.7m10.651,0a1.682,1.682,0,1,0,1.686-1.7,1.693,1.693,0,0,0-1.686,1.7M6,20.648v.519a3,3,0,1,0,0-.519m17.036.263a2.972,2.972,0,1,0,2.972-3.005,2.99,2.99,0,0,0-2.972,3.005m-9.845,0a4.276,4.276,0,1,0,4.275-4.322,4.3,4.3,0,0,0-4.275,4.322m-2.712-5.426a1.678,1.678,0,1,0,1.678-1.7,1.684,1.684,0,0,0-1.678,1.7m10.651,0a1.682,1.682,0,1,0,1.686-1.7,1.686,1.686,0,0,0-1.686,1.7M6.4,14.943a1.262,1.262,0,1,0,1.262-1.276A1.27,1.27,0,0,0,6.4,14.943m19.642,0A1.262,1.262,0,1,0,27.3,13.666a1.27,1.27,0,0,0-1.262,1.276M10.2,11.106A1.262,1.262,0,1,0,11.464,9.83,1.277,1.277,0,0,0,10.2,11.106m12.036,0A1.262,1.262,0,1,0,23.5,9.83a1.277,1.277,0,0,0-1.262,1.276m-7.744,1.169A2.977,2.977,0,1,0,17.466,9.27a2.99,2.99,0,0,0-2.972,3.005" transform="translate(-6 -9.27)"/></clipPath></defs><g transform="translate(0 0)"><g transform="translate(0 0)"><g class="b" transform="translate(0 0)"><path class="a" d="M37.884,18.407,14.863,41.682-8.15,18.407,14.863-4.86Z" transform="translate(-3.373 -6.773)"/></g></g></g></svg>